<mxfile host="app.diagrams.net" modified="2023-11-23T17:38:47.333Z" agent="Mozilla/5.0 (Windows NT 10.0; Win64; x64) AppleWebKit/537.36 (KHTML, like Gecko) Chrome/119.0.0.0 Safari/537.36" etag="HKTUaDC8VYxYggkiStvp" version="22.1.3" type="github">
  <diagram name="Page-1" id="q_-W6A4MVtsskTOEbZpO">
    <mxGraphModel dx="875" dy="445" grid="1" gridSize="10" guides="1" tooltips="1" connect="1" arrows="1" fold="1" page="1" pageScale="1" pageWidth="827" pageHeight="1169" math="0" shadow="0">
      <root>
        <mxCell id="0" />
        <mxCell id="1" parent="0" />
        <mxCell id="QnwhM99dSTtiAcAZ6U44-1" value="&lt;h2&gt;Broker&lt;/h2&gt;" style="rounded=0;whiteSpace=wrap;html=1;" vertex="1" parent="1">
          <mxGeometry x="350" y="250" width="120" height="60" as="geometry" />
        </mxCell>
        <mxCell id="QnwhM99dSTtiAcAZ6U44-2" value="&lt;h2&gt;Publisher 1&lt;/h2&gt;" style="rounded=0;whiteSpace=wrap;html=1;" vertex="1" parent="1">
          <mxGeometry x="100" y="80" width="120" height="60" as="geometry" />
        </mxCell>
        <mxCell id="QnwhM99dSTtiAcAZ6U44-3" value="&lt;h2&gt;Publisher 2&lt;/h2&gt;" style="rounded=0;whiteSpace=wrap;html=1;" vertex="1" parent="1">
          <mxGeometry x="100" y="250" width="120" height="60" as="geometry" />
        </mxCell>
        <mxCell id="QnwhM99dSTtiAcAZ6U44-4" value="&lt;h2&gt;Publisher 3&lt;/h2&gt;" style="rounded=0;whiteSpace=wrap;html=1;" vertex="1" parent="1">
          <mxGeometry x="100" y="400" width="120" height="60" as="geometry" />
        </mxCell>
        <mxCell id="QnwhM99dSTtiAcAZ6U44-5" value="&lt;h2&gt;Subscriber 1&lt;/h2&gt;" style="rounded=0;whiteSpace=wrap;html=1;" vertex="1" parent="1">
          <mxGeometry x="610" y="80" width="120" height="60" as="geometry" />
        </mxCell>
        <mxCell id="QnwhM99dSTtiAcAZ6U44-6" value="&lt;h2&gt;Subscriber&lt;span style=&quot;background-color: initial; font-size: 12px; font-weight: normal;&quot;&gt;&amp;nbsp;&lt;/span&gt;2&lt;/h2&gt;" style="rounded=0;whiteSpace=wrap;html=1;" vertex="1" parent="1">
          <mxGeometry x="610" y="250" width="120" height="60" as="geometry" />
        </mxCell>
        <mxCell id="QnwhM99dSTtiAcAZ6U44-7" value="&lt;h2&gt;Subscriber&lt;span style=&quot;background-color: initial; font-size: 12px; font-weight: normal;&quot;&gt;&amp;nbsp;&lt;/span&gt;&amp;nbsp;3&lt;/h2&gt;" style="rounded=0;whiteSpace=wrap;html=1;" vertex="1" parent="1">
          <mxGeometry x="610" y="400" width="120" height="60" as="geometry" />
        </mxCell>
        <mxCell id="QnwhM99dSTtiAcAZ6U44-8" value="" style="endArrow=classic;html=1;rounded=0;exitX=1;exitY=0.5;exitDx=0;exitDy=0;entryX=0;entryY=0.5;entryDx=0;entryDy=0;" edge="1" parent="1" source="QnwhM99dSTtiAcAZ6U44-2" target="QnwhM99dSTtiAcAZ6U44-1">
          <mxGeometry width="50" height="50" relative="1" as="geometry">
            <mxPoint x="390" y="340" as="sourcePoint" />
            <mxPoint x="440" y="290" as="targetPoint" />
          </mxGeometry>
        </mxCell>
        <mxCell id="QnwhM99dSTtiAcAZ6U44-10" value="" style="endArrow=classic;html=1;rounded=0;exitX=1;exitY=0.5;exitDx=0;exitDy=0;" edge="1" parent="1" source="QnwhM99dSTtiAcAZ6U44-3">
          <mxGeometry width="50" height="50" relative="1" as="geometry">
            <mxPoint x="390" y="340" as="sourcePoint" />
            <mxPoint x="350" y="280" as="targetPoint" />
          </mxGeometry>
        </mxCell>
        <mxCell id="QnwhM99dSTtiAcAZ6U44-11" value="" style="endArrow=classic;html=1;rounded=0;exitX=1;exitY=0.5;exitDx=0;exitDy=0;" edge="1" parent="1" source="QnwhM99dSTtiAcAZ6U44-4">
          <mxGeometry width="50" height="50" relative="1" as="geometry">
            <mxPoint x="390" y="340" as="sourcePoint" />
            <mxPoint x="350" y="280" as="targetPoint" />
          </mxGeometry>
        </mxCell>
        <mxCell id="QnwhM99dSTtiAcAZ6U44-12" value="" style="endArrow=classic;html=1;rounded=0;exitX=1;exitY=0.5;exitDx=0;exitDy=0;entryX=0;entryY=0.5;entryDx=0;entryDy=0;" edge="1" parent="1" source="QnwhM99dSTtiAcAZ6U44-1" target="QnwhM99dSTtiAcAZ6U44-5">
          <mxGeometry width="50" height="50" relative="1" as="geometry">
            <mxPoint x="340" y="330" as="sourcePoint" />
            <mxPoint x="390" y="280" as="targetPoint" />
          </mxGeometry>
        </mxCell>
        <mxCell id="QnwhM99dSTtiAcAZ6U44-13" value="" style="endArrow=classic;html=1;rounded=0;entryX=0;entryY=0.5;entryDx=0;entryDy=0;" edge="1" parent="1" target="QnwhM99dSTtiAcAZ6U44-6">
          <mxGeometry width="50" height="50" relative="1" as="geometry">
            <mxPoint x="470" y="280" as="sourcePoint" />
            <mxPoint x="390" y="280" as="targetPoint" />
          </mxGeometry>
        </mxCell>
        <mxCell id="QnwhM99dSTtiAcAZ6U44-14" value="" style="endArrow=classic;html=1;rounded=0;exitX=1;exitY=0.5;exitDx=0;exitDy=0;entryX=0;entryY=0.5;entryDx=0;entryDy=0;" edge="1" parent="1" source="QnwhM99dSTtiAcAZ6U44-1" target="QnwhM99dSTtiAcAZ6U44-7">
          <mxGeometry width="50" height="50" relative="1" as="geometry">
            <mxPoint x="340" y="330" as="sourcePoint" />
            <mxPoint x="390" y="280" as="targetPoint" />
          </mxGeometry>
        </mxCell>
      </root>
    </mxGraphModel>
  </diagram>
</mxfile>
